<mxfile host="app.diagrams.net" agent="Mozilla/5.0 (X11; Linux x86_64) AppleWebKit/537.36 (KHTML, like Gecko) Chrome/138.0.0.0 Safari/537.36" version="28.0.7">
  <diagram name="Page-1" id="Z-pyiNcDYGIOR9lo4ZER">
    <mxGraphModel dx="2469" dy="933" grid="1" gridSize="10" guides="1" tooltips="1" connect="1" arrows="1" fold="1" page="1" pageScale="1" pageWidth="850" pageHeight="1100" math="0" shadow="0">
      <root>
        <mxCell id="0" />
        <mxCell id="1" parent="0" />
        <mxCell id="uXtr_5GytP84Dhj3_Lol-1" value="" style="rounded=1;whiteSpace=wrap;html=1;fillColor=none;shadow=1;arcSize=4;" vertex="1" parent="1">
          <mxGeometry x="160" y="320" width="760" height="360" as="geometry" />
        </mxCell>
        <mxCell id="uXtr_5GytP84Dhj3_Lol-2" value="" style="rounded=1;whiteSpace=wrap;html=1;fillColor=none;shadow=1;" vertex="1" parent="1">
          <mxGeometry x="970" y="320.5" width="160" height="359.5" as="geometry" />
        </mxCell>
        <mxCell id="uXtr_5GytP84Dhj3_Lol-3" value="" style="rounded=1;whiteSpace=wrap;html=1;fillColor=none;shadow=1;arcSize=7;" vertex="1" parent="1">
          <mxGeometry x="-40" y="320" width="160" height="360" as="geometry" />
        </mxCell>
        <mxCell id="uXtr_5GytP84Dhj3_Lol-5" value="" style="shape=mxgraph.signs.transportation.car_2;html=1;pointerEvents=1;fillColor=#000000;strokeColor=none;verticalLabelPosition=bottom;verticalAlign=top;align=center;" vertex="1" parent="1">
          <mxGeometry x="-10" y="483.5" width="100" height="33" as="geometry" />
        </mxCell>
        <mxCell id="uXtr_5GytP84Dhj3_Lol-6" value="" style="shape=image;html=1;verticalAlign=top;verticalLabelPosition=bottom;labelBackgroundColor=#ffffff;imageAspect=0;aspect=fixed;image=https://icons.diagrams.net/icon-cache1/Weather_Color-2043/weather-03-888.svg" vertex="1" parent="1">
          <mxGeometry x="5" y="330" width="70" height="70" as="geometry" />
        </mxCell>
        <mxCell id="uXtr_5GytP84Dhj3_Lol-7" value="" style="verticalLabelPosition=bottom;html=1;verticalAlign=top;align=center;strokeColor=none;fillColor=#00BEF2;shape=mxgraph.azure.traffic_manager;pointerEvents=1;" vertex="1" parent="1">
          <mxGeometry x="15" y="590" width="50" height="50" as="geometry" />
        </mxCell>
      </root>
    </mxGraphModel>
  </diagram>
</mxfile>
